G75*
%MOIN*%
%OFA0B0*%
%FSLAX24Y24*%
%IPPOS*%
%LPD*%
%AMOC8*
5,1,8,0,0,1.08239X$1,22.5*
%
%ADD10C,0.0000*%
%ADD11C,0.2500*%
%ADD12R,0.1260X0.1260*%
D10*
X001756Y001447D02*
X001756Y012403D01*
X001746Y012471D01*
X001741Y012539D01*
X001739Y012607D01*
X001741Y012675D01*
X001747Y012743D01*
X001757Y012811D01*
X001770Y012878D01*
X001788Y012944D01*
X001809Y013009D01*
X001833Y013072D01*
X001861Y013134D01*
X001893Y013195D01*
X001928Y013254D01*
X001966Y013310D01*
X002007Y013365D01*
X002051Y013417D01*
X002098Y013466D01*
X002148Y013513D01*
X002200Y013557D01*
X002255Y013598D01*
X002312Y013635D01*
X002371Y013670D01*
X002431Y013701D01*
X002494Y013729D01*
X002558Y013753D01*
X002623Y013773D01*
X002689Y013790D01*
X002756Y013803D01*
X010756Y013803D01*
X010823Y013790D01*
X010889Y013773D01*
X010954Y013753D01*
X011018Y013729D01*
X011081Y013701D01*
X011141Y013670D01*
X011200Y013635D01*
X011257Y013598D01*
X011312Y013557D01*
X011364Y013513D01*
X011414Y013466D01*
X011461Y013417D01*
X011505Y013365D01*
X011546Y013310D01*
X011584Y013254D01*
X011619Y013195D01*
X011651Y013134D01*
X011679Y013072D01*
X011703Y013009D01*
X011724Y012944D01*
X011742Y012878D01*
X011755Y012811D01*
X011765Y012743D01*
X011771Y012675D01*
X011773Y012607D01*
X011771Y012539D01*
X011766Y012471D01*
X011756Y012403D01*
X011756Y001447D01*
X011754Y001387D01*
X011749Y001326D01*
X011740Y001267D01*
X011727Y001208D01*
X011711Y001149D01*
X011691Y001092D01*
X011668Y001037D01*
X011641Y000982D01*
X011612Y000930D01*
X011579Y000879D01*
X011543Y000830D01*
X011505Y000784D01*
X011463Y000740D01*
X011419Y000698D01*
X011373Y000660D01*
X011324Y000624D01*
X011273Y000591D01*
X011221Y000562D01*
X011166Y000535D01*
X011111Y000512D01*
X011054Y000492D01*
X010995Y000476D01*
X010936Y000463D01*
X010877Y000454D01*
X010816Y000449D01*
X010756Y000447D01*
X002756Y000447D01*
X002696Y000449D01*
X002635Y000454D01*
X002576Y000463D01*
X002517Y000476D01*
X002458Y000492D01*
X002401Y000512D01*
X002346Y000535D01*
X002291Y000562D01*
X002239Y000591D01*
X002188Y000624D01*
X002139Y000660D01*
X002093Y000698D01*
X002049Y000740D01*
X002007Y000784D01*
X001969Y000830D01*
X001933Y000879D01*
X001900Y000930D01*
X001871Y000982D01*
X001844Y001037D01*
X001821Y001092D01*
X001801Y001149D01*
X001785Y001208D01*
X001772Y001267D01*
X001763Y001326D01*
X001758Y001387D01*
X001756Y001447D01*
X005630Y007544D02*
X005632Y007592D01*
X005638Y007640D01*
X005648Y007687D01*
X005661Y007733D01*
X005679Y007778D01*
X005699Y007822D01*
X005724Y007864D01*
X005752Y007903D01*
X005782Y007940D01*
X005816Y007974D01*
X005853Y008006D01*
X005891Y008035D01*
X005932Y008060D01*
X005975Y008082D01*
X006020Y008100D01*
X006066Y008114D01*
X006113Y008125D01*
X006161Y008132D01*
X006209Y008135D01*
X006257Y008134D01*
X006305Y008129D01*
X006353Y008120D01*
X006399Y008108D01*
X006444Y008091D01*
X006488Y008071D01*
X006530Y008048D01*
X006570Y008021D01*
X006608Y007991D01*
X006643Y007958D01*
X006675Y007922D01*
X006705Y007884D01*
X006731Y007843D01*
X006753Y007800D01*
X006773Y007756D01*
X006788Y007711D01*
X006800Y007664D01*
X006808Y007616D01*
X006812Y007568D01*
X006812Y007520D01*
X006808Y007472D01*
X006800Y007424D01*
X006788Y007377D01*
X006773Y007332D01*
X006753Y007288D01*
X006731Y007245D01*
X006705Y007204D01*
X006675Y007166D01*
X006643Y007130D01*
X006608Y007097D01*
X006570Y007067D01*
X006530Y007040D01*
X006488Y007017D01*
X006444Y006997D01*
X006399Y006980D01*
X006353Y006968D01*
X006305Y006959D01*
X006257Y006954D01*
X006209Y006953D01*
X006161Y006956D01*
X006113Y006963D01*
X006066Y006974D01*
X006020Y006988D01*
X005975Y007006D01*
X005932Y007028D01*
X005891Y007053D01*
X005853Y007082D01*
X005816Y007114D01*
X005782Y007148D01*
X005752Y007185D01*
X005724Y007224D01*
X005699Y007266D01*
X005679Y007310D01*
X005661Y007355D01*
X005648Y007401D01*
X005638Y007448D01*
X005632Y007496D01*
X005630Y007544D01*
D11*
X006756Y011097D03*
D12*
X003518Y011097D03*
X009994Y011097D03*
M02*
