G75*
%MOIN*%
%OFA0B0*%
%FSLAX24Y24*%
%IPPOS*%
%LPD*%
%AMOC8*
5,1,8,0,0,1.08239X$1,22.5*
%
%ADD10C,0.0000*%
%ADD11C,0.1181*%
%ADD12C,0.2500*%
%ADD13R,0.1260X0.1260*%
%ADD14C,0.0700*%
%ADD15C,0.0160*%
%ADD16C,0.0397*%
%ADD17C,0.0100*%
D10*
X001756Y001447D02*
X001756Y012403D01*
X001746Y012471D01*
X001741Y012539D01*
X001739Y012607D01*
X001741Y012675D01*
X001747Y012743D01*
X001757Y012811D01*
X001770Y012878D01*
X001788Y012944D01*
X001809Y013009D01*
X001833Y013072D01*
X001861Y013134D01*
X001893Y013195D01*
X001928Y013254D01*
X001966Y013310D01*
X002007Y013365D01*
X002051Y013417D01*
X002098Y013466D01*
X002148Y013513D01*
X002200Y013557D01*
X002255Y013598D01*
X002312Y013635D01*
X002371Y013670D01*
X002431Y013701D01*
X002494Y013729D01*
X002558Y013753D01*
X002623Y013773D01*
X002689Y013790D01*
X002756Y013803D01*
X010756Y013803D01*
X010823Y013790D01*
X010889Y013773D01*
X010954Y013753D01*
X011018Y013729D01*
X011081Y013701D01*
X011141Y013670D01*
X011200Y013635D01*
X011257Y013598D01*
X011312Y013557D01*
X011364Y013513D01*
X011414Y013466D01*
X011461Y013417D01*
X011505Y013365D01*
X011546Y013310D01*
X011584Y013254D01*
X011619Y013195D01*
X011651Y013134D01*
X011679Y013072D01*
X011703Y013009D01*
X011724Y012944D01*
X011742Y012878D01*
X011755Y012811D01*
X011765Y012743D01*
X011771Y012675D01*
X011773Y012607D01*
X011771Y012539D01*
X011766Y012471D01*
X011756Y012403D01*
X011756Y001447D01*
X011754Y001387D01*
X011749Y001326D01*
X011740Y001267D01*
X011727Y001208D01*
X011711Y001149D01*
X011691Y001092D01*
X011668Y001037D01*
X011641Y000982D01*
X011612Y000930D01*
X011579Y000879D01*
X011543Y000830D01*
X011505Y000784D01*
X011463Y000740D01*
X011419Y000698D01*
X011373Y000660D01*
X011324Y000624D01*
X011273Y000591D01*
X011221Y000562D01*
X011166Y000535D01*
X011111Y000512D01*
X011054Y000492D01*
X010995Y000476D01*
X010936Y000463D01*
X010877Y000454D01*
X010816Y000449D01*
X010756Y000447D01*
X002756Y000447D01*
X002696Y000449D01*
X002635Y000454D01*
X002576Y000463D01*
X002517Y000476D01*
X002458Y000492D01*
X002401Y000512D01*
X002346Y000535D01*
X002291Y000562D01*
X002239Y000591D01*
X002188Y000624D01*
X002139Y000660D01*
X002093Y000698D01*
X002049Y000740D01*
X002007Y000784D01*
X001969Y000830D01*
X001933Y000879D01*
X001900Y000930D01*
X001871Y000982D01*
X001844Y001037D01*
X001821Y001092D01*
X001801Y001149D01*
X001785Y001208D01*
X001772Y001267D01*
X001763Y001326D01*
X001758Y001387D01*
X001756Y001447D01*
X005630Y007544D02*
X005632Y007592D01*
X005638Y007640D01*
X005648Y007687D01*
X005661Y007733D01*
X005679Y007778D01*
X005699Y007822D01*
X005724Y007864D01*
X005752Y007903D01*
X005782Y007940D01*
X005816Y007974D01*
X005853Y008006D01*
X005891Y008035D01*
X005932Y008060D01*
X005975Y008082D01*
X006020Y008100D01*
X006066Y008114D01*
X006113Y008125D01*
X006161Y008132D01*
X006209Y008135D01*
X006257Y008134D01*
X006305Y008129D01*
X006353Y008120D01*
X006399Y008108D01*
X006444Y008091D01*
X006488Y008071D01*
X006530Y008048D01*
X006570Y008021D01*
X006608Y007991D01*
X006643Y007958D01*
X006675Y007922D01*
X006705Y007884D01*
X006731Y007843D01*
X006753Y007800D01*
X006773Y007756D01*
X006788Y007711D01*
X006800Y007664D01*
X006808Y007616D01*
X006812Y007568D01*
X006812Y007520D01*
X006808Y007472D01*
X006800Y007424D01*
X006788Y007377D01*
X006773Y007332D01*
X006753Y007288D01*
X006731Y007245D01*
X006705Y007204D01*
X006675Y007166D01*
X006643Y007130D01*
X006608Y007097D01*
X006570Y007067D01*
X006530Y007040D01*
X006488Y007017D01*
X006444Y006997D01*
X006399Y006980D01*
X006353Y006968D01*
X006305Y006959D01*
X006257Y006954D01*
X006209Y006953D01*
X006161Y006956D01*
X006113Y006963D01*
X006066Y006974D01*
X006020Y006988D01*
X005975Y007006D01*
X005932Y007028D01*
X005891Y007053D01*
X005853Y007082D01*
X005816Y007114D01*
X005782Y007148D01*
X005752Y007185D01*
X005724Y007224D01*
X005699Y007266D01*
X005679Y007310D01*
X005661Y007355D01*
X005648Y007401D01*
X005638Y007448D01*
X005632Y007496D01*
X005630Y007544D01*
D11*
X002756Y012803D03*
X010756Y012803D03*
D12*
X006756Y011097D03*
D13*
X003518Y011097D03*
X009994Y011097D03*
D14*
X009756Y001247D03*
X008756Y001247D03*
X007756Y001247D03*
X006756Y001247D03*
X005756Y001247D03*
X004756Y001247D03*
X003756Y001247D03*
X002756Y001247D03*
X010756Y001247D03*
D15*
X010756Y001897D01*
X010506Y002147D01*
X009206Y002147D01*
X008456Y002897D01*
X008456Y005047D01*
X007606Y005897D01*
X007606Y007397D01*
X008406Y008147D02*
X010006Y009747D01*
X010006Y011085D01*
X009994Y011097D01*
X011206Y011647D02*
X011206Y011747D01*
X009206Y013047D02*
X009006Y013047D01*
X006756Y011097D02*
X006756Y008397D01*
X008406Y008147D02*
X008406Y005797D01*
X009056Y006447D02*
X009056Y003847D01*
X010206Y002697D01*
X011156Y003297D02*
X010606Y003847D01*
X010606Y005547D01*
X009606Y005547D01*
X010606Y005547D02*
X010606Y007497D01*
X009906Y008197D01*
X009306Y008197D01*
X009606Y007447D02*
X009606Y007347D01*
X011356Y005597D02*
X011356Y005547D01*
X011406Y005497D01*
X011356Y003297D02*
X011156Y003297D01*
X007506Y005347D02*
X007506Y005447D01*
X006456Y005247D02*
X005056Y005247D01*
X004906Y005397D01*
X004906Y007047D01*
X004856Y007097D01*
X003306Y006297D02*
X003306Y001697D01*
X003756Y001247D01*
X003956Y003197D02*
X003956Y003297D01*
X004306Y009297D02*
X004506Y009297D01*
D16*
X004306Y009297D03*
X004856Y007097D03*
X003306Y006297D03*
X002606Y006447D03*
X006456Y005247D03*
X007506Y005347D03*
X008406Y005797D03*
X009056Y006447D03*
X009606Y007347D03*
X009306Y008197D03*
X007606Y007397D03*
X009606Y005547D03*
X011356Y005597D03*
X011356Y003297D03*
X010206Y002697D03*
X003956Y003297D03*
X011206Y011747D03*
X009006Y013047D03*
D17*
X008782Y012819D02*
X008744Y012857D01*
X008710Y012901D01*
X008699Y012902D01*
X008561Y013040D01*
X008560Y013050D01*
X008517Y013084D01*
X008478Y013123D01*
X008467Y013123D01*
X008314Y013243D01*
X008311Y013254D01*
X008264Y013282D01*
X008221Y013316D01*
X008211Y013314D01*
X008044Y013415D01*
X008040Y013425D01*
X007990Y013448D01*
X007943Y013476D01*
X007933Y013474D01*
X007756Y013553D01*
X010248Y013553D01*
X010103Y013456D01*
X009903Y013156D01*
X009832Y012803D01*
X009903Y012449D01*
X010103Y012150D01*
X010403Y011950D01*
X010756Y011879D01*
X011110Y011950D01*
X011409Y012150D01*
X011506Y012295D01*
X011506Y003590D01*
X011421Y003625D01*
X011291Y003625D01*
X011173Y003576D01*
X010816Y003934D01*
X010816Y007584D01*
X010116Y008284D01*
X009993Y008407D01*
X009561Y008407D01*
X009492Y008475D01*
X009371Y008525D01*
X009241Y008525D01*
X009120Y008475D01*
X009028Y008383D01*
X008978Y008262D01*
X008978Y008131D01*
X009028Y008011D01*
X009120Y007918D01*
X009241Y007868D01*
X009371Y007868D01*
X009492Y007918D01*
X009561Y007987D01*
X009819Y007987D01*
X010396Y007410D01*
X010396Y005757D01*
X009861Y005757D01*
X009792Y005825D01*
X009671Y005875D01*
X009541Y005875D01*
X009420Y005825D01*
X009328Y005733D01*
X009278Y005612D01*
X009278Y005481D01*
X009328Y005361D01*
X009420Y005268D01*
X009541Y005218D01*
X009671Y005218D01*
X009792Y005268D01*
X009861Y005337D01*
X010396Y005337D01*
X010396Y003760D01*
X010519Y003637D01*
X011069Y003087D01*
X011102Y003087D01*
X011170Y003018D01*
X011291Y002968D01*
X011421Y002968D01*
X011506Y003003D01*
X011506Y001447D01*
X011497Y001329D01*
X011424Y001106D01*
X011286Y000916D01*
X011097Y000778D01*
X010873Y000706D01*
X010756Y000697D01*
X002756Y000697D01*
X002639Y000706D01*
X002416Y000778D01*
X002226Y000916D01*
X002088Y001106D01*
X002015Y001329D01*
X002006Y001447D01*
X002006Y012295D01*
X002103Y012150D01*
X002403Y011950D01*
X002756Y011879D01*
X003110Y011950D01*
X003409Y012150D01*
X003610Y012449D01*
X003680Y012803D01*
X003610Y013156D01*
X003409Y013456D01*
X003264Y013553D01*
X005756Y013553D01*
X005579Y013474D01*
X005569Y013476D01*
X005522Y013448D01*
X005472Y013425D01*
X005468Y013415D01*
X005302Y013314D01*
X005291Y013316D01*
X005248Y013282D01*
X005201Y013254D01*
X005198Y013243D01*
X005045Y013123D01*
X005034Y013123D01*
X004995Y013084D01*
X004952Y013050D01*
X004951Y013040D01*
X004813Y012902D01*
X004802Y012901D01*
X004769Y012857D01*
X004730Y012819D01*
X004730Y012808D01*
X004610Y012655D01*
X004599Y012652D01*
X004571Y012605D01*
X004537Y012562D01*
X004538Y012551D01*
X004437Y012384D01*
X004427Y012381D01*
X004405Y012331D01*
X004377Y012284D01*
X004379Y012273D01*
X004299Y012096D01*
X004290Y012091D01*
X004273Y012038D01*
X004251Y011988D01*
X004255Y011978D01*
X004213Y011845D01*
X004202Y011857D01*
X002834Y011857D01*
X002758Y011780D01*
X002758Y010413D01*
X002834Y010337D01*
X004202Y010337D01*
X004213Y010348D01*
X004255Y010215D01*
X004251Y010205D01*
X004273Y010155D01*
X004290Y010103D01*
X004299Y010098D01*
X004379Y009920D01*
X004377Y009910D01*
X004405Y009863D01*
X004427Y009813D01*
X004437Y009809D01*
X004538Y009642D01*
X004537Y009631D01*
X004571Y009588D01*
X004599Y009541D01*
X004610Y009539D01*
X004730Y009385D01*
X004730Y009375D01*
X004769Y009336D01*
X004802Y009293D01*
X004813Y009291D01*
X004951Y009154D01*
X004952Y009143D01*
X004995Y009109D01*
X005034Y009070D01*
X005045Y009070D01*
X005198Y008950D01*
X005201Y008940D01*
X005248Y008911D01*
X005291Y008878D01*
X005302Y008879D01*
X005468Y008778D01*
X005472Y008768D01*
X005522Y008746D01*
X005569Y008717D01*
X005579Y008720D01*
X005757Y008640D01*
X005762Y008630D01*
X005815Y008614D01*
X005865Y008591D01*
X005875Y008595D01*
X006061Y008537D01*
X006067Y008528D01*
X006121Y008519D01*
X006173Y008502D01*
X006182Y008507D01*
X006374Y008472D01*
X006381Y008464D01*
X006436Y008461D01*
X006490Y008451D01*
X006499Y008457D01*
X006693Y008445D01*
X006701Y008438D01*
X006756Y008441D01*
X006811Y008438D01*
X006819Y008445D01*
X007013Y008457D01*
X007022Y008451D01*
X007076Y008461D01*
X007131Y008464D01*
X007138Y008472D01*
X007330Y008507D01*
X007339Y008502D01*
X007392Y008519D01*
X007445Y008528D01*
X007452Y008537D01*
X007638Y008595D01*
X007648Y008591D01*
X007698Y008614D01*
X007750Y008630D01*
X007755Y008640D01*
X007933Y008720D01*
X007943Y008717D01*
X007990Y008746D01*
X008040Y008768D01*
X008044Y008778D01*
X008211Y008879D01*
X008221Y008878D01*
X008264Y008911D01*
X008311Y008940D01*
X008314Y008950D01*
X008467Y009070D01*
X008478Y009070D01*
X008517Y009109D01*
X008560Y009143D01*
X008561Y009154D01*
X008699Y009291D01*
X008710Y009293D01*
X008744Y009336D01*
X008782Y009375D01*
X008782Y009385D01*
X008903Y009539D01*
X008913Y009541D01*
X008941Y009588D01*
X008975Y009631D01*
X008974Y009642D01*
X009075Y009809D01*
X009085Y009813D01*
X009107Y009863D01*
X009136Y009910D01*
X009133Y009920D01*
X009213Y010098D01*
X009223Y010103D01*
X009239Y010155D01*
X009261Y010205D01*
X009258Y010215D01*
X009299Y010348D01*
X009311Y010337D01*
X009796Y010337D01*
X009796Y009834D01*
X008196Y008234D01*
X008196Y006051D01*
X008128Y005983D01*
X008078Y005862D01*
X008078Y005731D01*
X008084Y005716D01*
X007816Y005984D01*
X007816Y007142D01*
X007885Y007211D01*
X007935Y007331D01*
X007935Y007462D01*
X007885Y007583D01*
X007792Y007675D01*
X007671Y007725D01*
X007541Y007725D01*
X007420Y007675D01*
X007328Y007583D01*
X007278Y007462D01*
X007278Y007331D01*
X007328Y007211D01*
X007396Y007142D01*
X007396Y005984D01*
X007396Y005810D01*
X008246Y004960D01*
X008246Y002810D01*
X008996Y002060D01*
X009119Y001937D01*
X010419Y001937D01*
X010546Y001810D01*
X010546Y001679D01*
X010484Y001654D01*
X010349Y001519D01*
X010276Y001342D01*
X010276Y001151D01*
X010349Y000975D01*
X010484Y000840D01*
X010661Y000767D01*
X010852Y000767D01*
X011028Y000840D01*
X011163Y000975D01*
X011236Y001151D01*
X011236Y001342D01*
X011163Y001519D01*
X011028Y001654D01*
X010966Y001679D01*
X010966Y001984D01*
X010843Y002107D01*
X010593Y002357D01*
X009293Y002357D01*
X008666Y002984D01*
X008666Y005134D01*
X008543Y005257D01*
X008325Y005475D01*
X008341Y005468D01*
X008471Y005468D01*
X008592Y005518D01*
X008685Y005611D01*
X008735Y005731D01*
X008735Y005862D01*
X008685Y005983D01*
X008616Y006051D01*
X008616Y008060D01*
X010093Y009537D01*
X010216Y009660D01*
X010216Y010337D01*
X010678Y010337D01*
X010754Y010413D01*
X010754Y011780D01*
X010678Y011857D01*
X009311Y011857D01*
X009299Y011845D01*
X009258Y011978D01*
X009261Y011988D01*
X009239Y012038D01*
X009223Y012091D01*
X009213Y012096D01*
X009133Y012273D01*
X009136Y012284D01*
X009107Y012331D01*
X009085Y012381D01*
X009075Y012384D01*
X008974Y012551D01*
X008975Y012562D01*
X009880Y012562D01*
X009900Y012464D02*
X009027Y012464D01*
X008975Y012562D02*
X008941Y012605D01*
X008913Y012652D01*
X008903Y012655D01*
X008782Y012808D01*
X008782Y012819D01*
X008743Y012858D02*
X009843Y012858D01*
X009841Y012759D02*
X008821Y012759D01*
X008898Y012661D02*
X009861Y012661D01*
X009863Y012956D02*
X008645Y012956D01*
X008555Y013055D02*
X009882Y013055D01*
X009902Y013153D02*
X008429Y013153D01*
X008312Y013252D02*
X009966Y013252D01*
X010032Y013350D02*
X008152Y013350D01*
X007989Y013449D02*
X010098Y013449D01*
X010239Y013547D02*
X007769Y013547D01*
X009092Y012365D02*
X009959Y012365D01*
X010025Y012267D02*
X009136Y012267D01*
X009180Y012168D02*
X010091Y012168D01*
X010223Y012070D02*
X009229Y012070D01*
X009260Y011971D02*
X010370Y011971D01*
X010754Y011774D02*
X011506Y011774D01*
X011506Y011676D02*
X010754Y011676D01*
X010754Y011577D02*
X011506Y011577D01*
X011506Y011479D02*
X010754Y011479D01*
X010754Y011380D02*
X011506Y011380D01*
X011506Y011282D02*
X010754Y011282D01*
X010754Y011183D02*
X011506Y011183D01*
X011506Y011085D02*
X010754Y011085D01*
X010754Y010986D02*
X011506Y010986D01*
X011506Y010888D02*
X010754Y010888D01*
X010754Y010789D02*
X011506Y010789D01*
X011506Y010691D02*
X010754Y010691D01*
X010754Y010592D02*
X011506Y010592D01*
X011506Y010494D02*
X010754Y010494D01*
X010737Y010395D02*
X011506Y010395D01*
X011506Y010297D02*
X010216Y010297D01*
X010216Y010198D02*
X011506Y010198D01*
X011506Y010100D02*
X010216Y010100D01*
X010216Y010001D02*
X011506Y010001D01*
X011506Y009903D02*
X010216Y009903D01*
X010216Y009804D02*
X011506Y009804D01*
X011506Y009706D02*
X010216Y009706D01*
X010164Y009607D02*
X011506Y009607D01*
X011506Y009509D02*
X010065Y009509D01*
X009967Y009410D02*
X011506Y009410D01*
X011506Y009312D02*
X009868Y009312D01*
X009770Y009213D02*
X011506Y009213D01*
X011506Y009115D02*
X009671Y009115D01*
X009573Y009016D02*
X011506Y009016D01*
X011506Y008918D02*
X009474Y008918D01*
X009376Y008819D02*
X011506Y008819D01*
X011506Y008721D02*
X009277Y008721D01*
X009179Y008622D02*
X011506Y008622D01*
X011506Y008524D02*
X009375Y008524D01*
X009237Y008524D02*
X009080Y008524D01*
X009070Y008425D02*
X008982Y008425D01*
X009004Y008327D02*
X008883Y008327D01*
X008978Y008228D02*
X008785Y008228D01*
X008686Y008130D02*
X008978Y008130D01*
X009019Y008031D02*
X008616Y008031D01*
X008616Y007933D02*
X009106Y007933D01*
X009507Y007933D02*
X009873Y007933D01*
X009972Y007834D02*
X008616Y007834D01*
X008616Y007736D02*
X010070Y007736D01*
X010169Y007637D02*
X008616Y007637D01*
X008616Y007539D02*
X010267Y007539D01*
X010366Y007440D02*
X008616Y007440D01*
X008616Y007342D02*
X010396Y007342D01*
X010396Y007243D02*
X008616Y007243D01*
X008616Y007145D02*
X010396Y007145D01*
X010396Y007046D02*
X008616Y007046D01*
X008616Y006948D02*
X010396Y006948D01*
X010396Y006849D02*
X008616Y006849D01*
X008616Y006751D02*
X008932Y006751D01*
X008991Y006775D02*
X008870Y006725D01*
X008778Y006633D01*
X008728Y006512D01*
X008728Y006381D01*
X008778Y006261D01*
X008846Y006192D01*
X008846Y003934D01*
X008846Y003760D01*
X009878Y002728D01*
X009878Y002631D01*
X009928Y002511D01*
X010020Y002418D01*
X010141Y002368D01*
X010271Y002368D01*
X010392Y002418D01*
X010485Y002511D01*
X010535Y002631D01*
X010535Y002762D01*
X010485Y002883D01*
X010392Y002975D01*
X010271Y003025D01*
X010175Y003025D01*
X009266Y003934D01*
X009266Y006192D01*
X009335Y006261D01*
X009385Y006381D01*
X009385Y006512D01*
X009335Y006633D01*
X009242Y006725D01*
X009121Y006775D01*
X008991Y006775D01*
X009180Y006751D02*
X010396Y006751D01*
X010396Y006652D02*
X009315Y006652D01*
X009367Y006554D02*
X010396Y006554D01*
X010396Y006455D02*
X009385Y006455D01*
X009374Y006357D02*
X010396Y006357D01*
X010396Y006258D02*
X009332Y006258D01*
X009266Y006160D02*
X010396Y006160D01*
X010396Y006061D02*
X009266Y006061D01*
X009266Y005963D02*
X010396Y005963D01*
X010396Y005864D02*
X009698Y005864D01*
X009852Y005766D02*
X010396Y005766D01*
X010816Y005766D02*
X011506Y005766D01*
X011506Y005864D02*
X010816Y005864D01*
X010816Y005963D02*
X011506Y005963D01*
X011506Y006061D02*
X010816Y006061D01*
X010816Y006160D02*
X011506Y006160D01*
X011506Y006258D02*
X010816Y006258D01*
X010816Y006357D02*
X011506Y006357D01*
X011506Y006455D02*
X010816Y006455D01*
X010816Y006554D02*
X011506Y006554D01*
X011506Y006652D02*
X010816Y006652D01*
X010816Y006751D02*
X011506Y006751D01*
X011506Y006849D02*
X010816Y006849D01*
X010816Y006948D02*
X011506Y006948D01*
X011506Y007046D02*
X010816Y007046D01*
X010816Y007145D02*
X011506Y007145D01*
X011506Y007243D02*
X010816Y007243D01*
X010816Y007342D02*
X011506Y007342D01*
X011506Y007440D02*
X010816Y007440D01*
X010816Y007539D02*
X011506Y007539D01*
X011506Y007637D02*
X010763Y007637D01*
X010664Y007736D02*
X011506Y007736D01*
X011506Y007834D02*
X010566Y007834D01*
X010467Y007933D02*
X011506Y007933D01*
X011506Y008031D02*
X010369Y008031D01*
X010270Y008130D02*
X011506Y008130D01*
X011506Y008228D02*
X010172Y008228D01*
X010073Y008327D02*
X011506Y008327D01*
X011506Y008425D02*
X009542Y008425D01*
X008979Y009016D02*
X008398Y009016D01*
X008275Y008918D02*
X008880Y008918D01*
X008782Y008819D02*
X008112Y008819D01*
X007949Y008721D02*
X008683Y008721D01*
X008585Y008622D02*
X007724Y008622D01*
X007420Y008524D02*
X008486Y008524D01*
X008388Y008425D02*
X002006Y008425D01*
X002006Y008327D02*
X005916Y008327D01*
X006054Y008384D02*
X005745Y008256D01*
X005509Y008020D01*
X005381Y007711D01*
X005381Y007376D01*
X005509Y007067D01*
X005745Y006831D01*
X006054Y006703D01*
X006389Y006703D01*
X006698Y006831D01*
X006934Y007067D01*
X007062Y007376D01*
X007062Y007711D01*
X006934Y008020D01*
X006698Y008256D01*
X006389Y008384D01*
X006054Y008384D01*
X006093Y008524D02*
X002006Y008524D01*
X002006Y008622D02*
X005788Y008622D01*
X005563Y008721D02*
X002006Y008721D01*
X002006Y008819D02*
X005400Y008819D01*
X005237Y008918D02*
X002006Y008918D01*
X002006Y009016D02*
X005114Y009016D01*
X004988Y009115D02*
X002006Y009115D01*
X002006Y009213D02*
X004891Y009213D01*
X004788Y009312D02*
X002006Y009312D01*
X002006Y009410D02*
X004710Y009410D01*
X004633Y009509D02*
X002006Y009509D01*
X002006Y009607D02*
X004556Y009607D01*
X004500Y009706D02*
X002006Y009706D01*
X002006Y009804D02*
X004440Y009804D01*
X004381Y009903D02*
X002006Y009903D01*
X002006Y010001D02*
X004343Y010001D01*
X004296Y010100D02*
X002006Y010100D01*
X002006Y010198D02*
X004254Y010198D01*
X004229Y010297D02*
X002006Y010297D01*
X002006Y010395D02*
X002776Y010395D01*
X002758Y010494D02*
X002006Y010494D01*
X002006Y010592D02*
X002758Y010592D01*
X002758Y010691D02*
X002006Y010691D01*
X002006Y010789D02*
X002758Y010789D01*
X002758Y010888D02*
X002006Y010888D01*
X002006Y010986D02*
X002758Y010986D01*
X002758Y011085D02*
X002006Y011085D01*
X002006Y011183D02*
X002758Y011183D01*
X002758Y011282D02*
X002006Y011282D01*
X002006Y011380D02*
X002758Y011380D01*
X002758Y011479D02*
X002006Y011479D01*
X002006Y011577D02*
X002758Y011577D01*
X002758Y011676D02*
X002006Y011676D01*
X002006Y011774D02*
X002758Y011774D01*
X002370Y011971D02*
X002006Y011971D01*
X002006Y011873D02*
X004222Y011873D01*
X004252Y011971D02*
X003142Y011971D01*
X003289Y012070D02*
X004283Y012070D01*
X004332Y012168D02*
X003422Y012168D01*
X003487Y012267D02*
X004376Y012267D01*
X004421Y012365D02*
X003553Y012365D01*
X003612Y012464D02*
X004485Y012464D01*
X004537Y012562D02*
X003632Y012562D01*
X003652Y012661D02*
X004614Y012661D01*
X004692Y012759D02*
X003671Y012759D01*
X003669Y012858D02*
X004769Y012858D01*
X004867Y012956D02*
X003649Y012956D01*
X003630Y013055D02*
X004958Y013055D01*
X005083Y013153D02*
X003610Y013153D01*
X003546Y013252D02*
X005200Y013252D01*
X005361Y013350D02*
X003480Y013350D01*
X003414Y013449D02*
X005524Y013449D01*
X005743Y013547D02*
X003273Y013547D01*
X002025Y012267D02*
X002006Y012267D01*
X002006Y012168D02*
X002091Y012168D01*
X002006Y012070D02*
X002223Y012070D01*
X006527Y008327D02*
X008289Y008327D01*
X008196Y008228D02*
X006726Y008228D01*
X006824Y008130D02*
X008196Y008130D01*
X008196Y008031D02*
X006923Y008031D01*
X006970Y007933D02*
X008196Y007933D01*
X008196Y007834D02*
X007011Y007834D01*
X007052Y007736D02*
X008196Y007736D01*
X008196Y007637D02*
X007830Y007637D01*
X007903Y007539D02*
X008196Y007539D01*
X008196Y007440D02*
X007935Y007440D01*
X007935Y007342D02*
X008196Y007342D01*
X008196Y007243D02*
X007898Y007243D01*
X007819Y007145D02*
X008196Y007145D01*
X008196Y007046D02*
X007816Y007046D01*
X007816Y006948D02*
X008196Y006948D01*
X008196Y006849D02*
X007816Y006849D01*
X007816Y006751D02*
X008196Y006751D01*
X008196Y006652D02*
X007816Y006652D01*
X007816Y006554D02*
X008196Y006554D01*
X008196Y006455D02*
X007816Y006455D01*
X007816Y006357D02*
X008196Y006357D01*
X008196Y006258D02*
X007816Y006258D01*
X007816Y006160D02*
X008196Y006160D01*
X008196Y006061D02*
X007816Y006061D01*
X007837Y005963D02*
X008119Y005963D01*
X008079Y005864D02*
X007936Y005864D01*
X008034Y005766D02*
X008078Y005766D01*
X008330Y005470D02*
X008336Y005470D01*
X008428Y005372D02*
X008846Y005372D01*
X008846Y005470D02*
X008476Y005470D01*
X008643Y005569D02*
X008846Y005569D01*
X008846Y005667D02*
X008708Y005667D01*
X008735Y005766D02*
X008846Y005766D01*
X008846Y005864D02*
X008734Y005864D01*
X008693Y005963D02*
X008846Y005963D01*
X008846Y006061D02*
X008616Y006061D01*
X008616Y006160D02*
X008846Y006160D01*
X008780Y006258D02*
X008616Y006258D01*
X008616Y006357D02*
X008738Y006357D01*
X008728Y006455D02*
X008616Y006455D01*
X008616Y006554D02*
X008745Y006554D01*
X008797Y006652D02*
X008616Y006652D01*
X009266Y005864D02*
X009514Y005864D01*
X009361Y005766D02*
X009266Y005766D01*
X009266Y005667D02*
X009301Y005667D01*
X009278Y005569D02*
X009266Y005569D01*
X009266Y005470D02*
X009282Y005470D01*
X009266Y005372D02*
X009323Y005372D01*
X009266Y005273D02*
X009415Y005273D01*
X009266Y005175D02*
X010396Y005175D01*
X010396Y005273D02*
X009797Y005273D01*
X009266Y005076D02*
X010396Y005076D01*
X010396Y004978D02*
X009266Y004978D01*
X009266Y004879D02*
X010396Y004879D01*
X010396Y004781D02*
X009266Y004781D01*
X009266Y004682D02*
X010396Y004682D01*
X010396Y004584D02*
X009266Y004584D01*
X009266Y004485D02*
X010396Y004485D01*
X010396Y004387D02*
X009266Y004387D01*
X009266Y004288D02*
X010396Y004288D01*
X010396Y004190D02*
X009266Y004190D01*
X009266Y004091D02*
X010396Y004091D01*
X010396Y003993D02*
X009266Y003993D01*
X009306Y003894D02*
X010396Y003894D01*
X010396Y003796D02*
X009404Y003796D01*
X009503Y003697D02*
X010459Y003697D01*
X010557Y003599D02*
X009601Y003599D01*
X009700Y003500D02*
X010656Y003500D01*
X010754Y003402D02*
X009798Y003402D01*
X009897Y003303D02*
X010853Y003303D01*
X010951Y003205D02*
X009995Y003205D01*
X010094Y003106D02*
X011050Y003106D01*
X011196Y003008D02*
X010313Y003008D01*
X010458Y002909D02*
X011506Y002909D01*
X011506Y002811D02*
X010514Y002811D01*
X010535Y002712D02*
X011506Y002712D01*
X011506Y002614D02*
X010527Y002614D01*
X010486Y002515D02*
X011506Y002515D01*
X011506Y002417D02*
X010388Y002417D01*
X010632Y002318D02*
X011506Y002318D01*
X011506Y002220D02*
X010730Y002220D01*
X010829Y002121D02*
X011506Y002121D01*
X011506Y002023D02*
X010927Y002023D01*
X010966Y001924D02*
X011506Y001924D01*
X011506Y001826D02*
X010966Y001826D01*
X010966Y001727D02*
X011506Y001727D01*
X011506Y001629D02*
X011053Y001629D01*
X011151Y001530D02*
X011506Y001530D01*
X011505Y001432D02*
X011199Y001432D01*
X011236Y001333D02*
X011497Y001333D01*
X011466Y001235D02*
X011236Y001235D01*
X011230Y001136D02*
X011434Y001136D01*
X011375Y001038D02*
X011189Y001038D01*
X011127Y000939D02*
X011303Y000939D01*
X011182Y000841D02*
X011029Y000841D01*
X010985Y000742D02*
X002527Y000742D01*
X002484Y000840D02*
X002349Y000975D01*
X002276Y001151D01*
X002276Y001342D01*
X002349Y001519D01*
X002484Y001654D01*
X002661Y001727D01*
X002852Y001727D01*
X003028Y001654D01*
X003163Y001519D01*
X003236Y001342D01*
X003236Y001151D01*
X003163Y000975D01*
X003028Y000840D01*
X002852Y000767D01*
X002661Y000767D01*
X002484Y000840D01*
X002483Y000841D02*
X002330Y000841D01*
X002385Y000939D02*
X002209Y000939D01*
X002138Y001038D02*
X002323Y001038D01*
X002282Y001136D02*
X002078Y001136D01*
X002046Y001235D02*
X002276Y001235D01*
X002276Y001333D02*
X002015Y001333D01*
X002007Y001432D02*
X002313Y001432D01*
X002361Y001530D02*
X002006Y001530D01*
X002006Y001629D02*
X002459Y001629D01*
X002006Y001727D02*
X003096Y001727D01*
X003096Y001629D02*
X003053Y001629D01*
X003096Y001610D02*
X003302Y001404D01*
X003276Y001342D01*
X003276Y001151D01*
X003349Y000975D01*
X003484Y000840D01*
X003661Y000767D01*
X003852Y000767D01*
X004028Y000840D01*
X004163Y000975D01*
X004236Y001151D01*
X004236Y001342D01*
X004163Y001519D01*
X004028Y001654D01*
X003852Y001727D01*
X003661Y001727D01*
X003599Y001701D01*
X003516Y001784D01*
X003516Y006042D01*
X003585Y006111D01*
X003635Y006231D01*
X003635Y006362D01*
X003585Y006483D01*
X003492Y006575D01*
X003371Y006625D01*
X003241Y006625D01*
X003120Y006575D01*
X003028Y006483D01*
X002978Y006362D01*
X002978Y006231D01*
X003028Y006111D01*
X003096Y006042D01*
X003096Y001610D01*
X003151Y001530D02*
X003176Y001530D01*
X003199Y001432D02*
X003274Y001432D01*
X003276Y001333D02*
X003236Y001333D01*
X003236Y001235D02*
X003276Y001235D01*
X003282Y001136D02*
X003230Y001136D01*
X003189Y001038D02*
X003323Y001038D01*
X003385Y000939D02*
X003127Y000939D01*
X003029Y000841D02*
X003483Y000841D01*
X004029Y000841D02*
X004483Y000841D01*
X004484Y000840D02*
X004661Y000767D01*
X004852Y000767D01*
X005028Y000840D01*
X005163Y000975D01*
X005236Y001151D01*
X005236Y001342D01*
X005163Y001519D01*
X005028Y001654D01*
X004852Y001727D01*
X004661Y001727D01*
X004484Y001654D01*
X004349Y001519D01*
X004276Y001342D01*
X004276Y001151D01*
X004349Y000975D01*
X004484Y000840D01*
X004385Y000939D02*
X004127Y000939D01*
X004189Y001038D02*
X004323Y001038D01*
X004282Y001136D02*
X004230Y001136D01*
X004236Y001235D02*
X004276Y001235D01*
X004276Y001333D02*
X004236Y001333D01*
X004199Y001432D02*
X004313Y001432D01*
X004361Y001530D02*
X004151Y001530D01*
X004053Y001629D02*
X004459Y001629D01*
X005053Y001629D02*
X005459Y001629D01*
X005484Y001654D02*
X005349Y001519D01*
X005276Y001342D01*
X005276Y001151D01*
X005349Y000975D01*
X005484Y000840D01*
X005661Y000767D01*
X005852Y000767D01*
X006028Y000840D01*
X006163Y000975D01*
X006236Y001151D01*
X006236Y001342D01*
X006163Y001519D01*
X006028Y001654D01*
X005852Y001727D01*
X005661Y001727D01*
X005484Y001654D01*
X005361Y001530D02*
X005151Y001530D01*
X005199Y001432D02*
X005313Y001432D01*
X005276Y001333D02*
X005236Y001333D01*
X005236Y001235D02*
X005276Y001235D01*
X005282Y001136D02*
X005230Y001136D01*
X005189Y001038D02*
X005323Y001038D01*
X005385Y000939D02*
X005127Y000939D01*
X005029Y000841D02*
X005483Y000841D01*
X006029Y000841D02*
X006483Y000841D01*
X006484Y000840D02*
X006661Y000767D01*
X006852Y000767D01*
X007028Y000840D01*
X007163Y000975D01*
X007236Y001151D01*
X007236Y001342D01*
X007163Y001519D01*
X007028Y001654D01*
X006852Y001727D01*
X006661Y001727D01*
X006484Y001654D01*
X006349Y001519D01*
X006276Y001342D01*
X006276Y001151D01*
X006349Y000975D01*
X006484Y000840D01*
X006385Y000939D02*
X006127Y000939D01*
X006189Y001038D02*
X006323Y001038D01*
X006282Y001136D02*
X006230Y001136D01*
X006236Y001235D02*
X006276Y001235D01*
X006276Y001333D02*
X006236Y001333D01*
X006199Y001432D02*
X006313Y001432D01*
X006361Y001530D02*
X006151Y001530D01*
X006053Y001629D02*
X006459Y001629D01*
X007053Y001629D02*
X007459Y001629D01*
X007484Y001654D02*
X007349Y001519D01*
X007276Y001342D01*
X007276Y001151D01*
X007349Y000975D01*
X007484Y000840D01*
X007661Y000767D01*
X007852Y000767D01*
X008028Y000840D01*
X008163Y000975D01*
X008187Y001032D01*
X008202Y001017D01*
X008335Y001017D01*
X008346Y000995D01*
X008390Y000934D01*
X008443Y000881D01*
X008505Y000836D01*
X008572Y000802D01*
X008644Y000778D01*
X008708Y000768D01*
X008708Y001198D01*
X008805Y001198D01*
X008805Y000768D01*
X008869Y000778D01*
X008940Y000802D01*
X009008Y000836D01*
X009069Y000881D01*
X009122Y000934D01*
X009167Y000995D01*
X009178Y001017D01*
X009310Y001017D01*
X009325Y001032D01*
X009349Y000975D01*
X009484Y000840D01*
X009661Y000767D01*
X009852Y000767D01*
X010028Y000840D01*
X010163Y000975D01*
X010236Y001151D01*
X010236Y001342D01*
X010163Y001519D01*
X010028Y001654D01*
X009852Y001727D01*
X009661Y001727D01*
X009484Y001654D01*
X009349Y001519D01*
X009325Y001461D01*
X009310Y001477D01*
X009178Y001477D01*
X009167Y001498D01*
X009122Y001559D01*
X009069Y001613D01*
X009008Y001657D01*
X008986Y001668D01*
X008986Y001801D01*
X008910Y001877D01*
X008602Y001877D01*
X008526Y001801D01*
X008526Y001668D01*
X008505Y001657D01*
X008443Y001613D01*
X008390Y001559D01*
X008346Y001498D01*
X008335Y001477D01*
X008202Y001477D01*
X008187Y001461D01*
X008163Y001519D01*
X008028Y001654D01*
X007852Y001727D01*
X007661Y001727D01*
X007484Y001654D01*
X007361Y001530D02*
X007151Y001530D01*
X007199Y001432D02*
X007313Y001432D01*
X007276Y001333D02*
X007236Y001333D01*
X007236Y001235D02*
X007276Y001235D01*
X007282Y001136D02*
X007230Y001136D01*
X007189Y001038D02*
X007323Y001038D01*
X007385Y000939D02*
X007127Y000939D01*
X007029Y000841D02*
X007483Y000841D01*
X008029Y000841D02*
X008498Y000841D01*
X008386Y000939D02*
X008127Y000939D01*
X008708Y000939D02*
X008805Y000939D01*
X008805Y000841D02*
X008708Y000841D01*
X008708Y001038D02*
X008805Y001038D01*
X008805Y001136D02*
X008708Y001136D01*
X009014Y000841D02*
X009483Y000841D01*
X009385Y000939D02*
X009126Y000939D01*
X009143Y001530D02*
X009361Y001530D01*
X009459Y001629D02*
X009047Y001629D01*
X008986Y001727D02*
X010546Y001727D01*
X010530Y001826D02*
X008961Y001826D01*
X009033Y002023D02*
X003516Y002023D01*
X003516Y002121D02*
X008935Y002121D01*
X008836Y002220D02*
X003516Y002220D01*
X003516Y002318D02*
X008738Y002318D01*
X008639Y002417D02*
X003516Y002417D01*
X003516Y002515D02*
X008541Y002515D01*
X008442Y002614D02*
X003516Y002614D01*
X003516Y002712D02*
X008344Y002712D01*
X008246Y002811D02*
X003516Y002811D01*
X003516Y002909D02*
X008246Y002909D01*
X008246Y003008D02*
X003516Y003008D01*
X003516Y003106D02*
X008246Y003106D01*
X008246Y003205D02*
X003516Y003205D01*
X003516Y003303D02*
X008246Y003303D01*
X008246Y003402D02*
X003516Y003402D01*
X003516Y003500D02*
X008246Y003500D01*
X008246Y003599D02*
X003516Y003599D01*
X003516Y003697D02*
X008246Y003697D01*
X008246Y003796D02*
X003516Y003796D01*
X003516Y003894D02*
X008246Y003894D01*
X008246Y003993D02*
X003516Y003993D01*
X003516Y004091D02*
X008246Y004091D01*
X008246Y004190D02*
X003516Y004190D01*
X003516Y004288D02*
X008246Y004288D01*
X008246Y004387D02*
X003516Y004387D01*
X003516Y004485D02*
X008246Y004485D01*
X008246Y004584D02*
X003516Y004584D01*
X003516Y004682D02*
X008246Y004682D01*
X008246Y004781D02*
X003516Y004781D01*
X003516Y004879D02*
X008246Y004879D01*
X008228Y004978D02*
X006652Y004978D01*
X006642Y004968D02*
X006735Y005061D01*
X006785Y005181D01*
X006785Y005312D01*
X006735Y005433D01*
X006642Y005525D01*
X006521Y005575D01*
X006391Y005575D01*
X006270Y005525D01*
X006202Y005457D01*
X005143Y005457D01*
X005116Y005484D01*
X005116Y006892D01*
X005135Y006911D01*
X005185Y007031D01*
X005185Y007162D01*
X005135Y007283D01*
X005042Y007375D01*
X004921Y007425D01*
X004791Y007425D01*
X004670Y007375D01*
X004578Y007283D01*
X004528Y007162D01*
X004528Y007031D01*
X004578Y006911D01*
X004670Y006818D01*
X004696Y006807D01*
X004696Y005310D01*
X004819Y005187D01*
X004969Y005037D01*
X006202Y005037D01*
X006270Y004968D01*
X006391Y004918D01*
X006521Y004918D01*
X006642Y004968D01*
X006741Y005076D02*
X008130Y005076D01*
X008031Y005175D02*
X006782Y005175D01*
X006785Y005273D02*
X007933Y005273D01*
X007834Y005372D02*
X006760Y005372D01*
X006697Y005470D02*
X007736Y005470D01*
X007637Y005569D02*
X006537Y005569D01*
X006375Y005569D02*
X005116Y005569D01*
X005116Y005667D02*
X007539Y005667D01*
X007440Y005766D02*
X005116Y005766D01*
X005116Y005864D02*
X007396Y005864D01*
X007396Y005963D02*
X005116Y005963D01*
X005116Y006061D02*
X007396Y006061D01*
X007396Y006160D02*
X005116Y006160D01*
X005116Y006258D02*
X007396Y006258D01*
X007396Y006357D02*
X005116Y006357D01*
X005116Y006455D02*
X007396Y006455D01*
X007396Y006554D02*
X005116Y006554D01*
X005116Y006652D02*
X007396Y006652D01*
X007396Y006751D02*
X006504Y006751D01*
X006716Y006849D02*
X007396Y006849D01*
X007396Y006948D02*
X006814Y006948D01*
X006913Y007046D02*
X007396Y007046D01*
X007394Y007145D02*
X006966Y007145D01*
X007007Y007243D02*
X007314Y007243D01*
X007278Y007342D02*
X007048Y007342D01*
X007062Y007440D02*
X007278Y007440D01*
X007309Y007539D02*
X007062Y007539D01*
X007062Y007637D02*
X007382Y007637D01*
X005939Y006751D02*
X005116Y006751D01*
X005116Y006849D02*
X005727Y006849D01*
X005629Y006948D02*
X005150Y006948D01*
X005185Y007046D02*
X005530Y007046D01*
X005477Y007145D02*
X005185Y007145D01*
X005151Y007243D02*
X005436Y007243D01*
X005395Y007342D02*
X005076Y007342D01*
X005381Y007440D02*
X002006Y007440D01*
X002006Y007342D02*
X004637Y007342D01*
X004561Y007243D02*
X002006Y007243D01*
X002006Y007145D02*
X004528Y007145D01*
X004528Y007046D02*
X002006Y007046D01*
X002006Y006948D02*
X004562Y006948D01*
X004639Y006849D02*
X002006Y006849D01*
X002006Y006751D02*
X004696Y006751D01*
X004696Y006652D02*
X002006Y006652D01*
X002006Y006554D02*
X003099Y006554D01*
X003016Y006455D02*
X002006Y006455D01*
X002006Y006357D02*
X002978Y006357D01*
X002978Y006258D02*
X002006Y006258D01*
X002006Y006160D02*
X003007Y006160D01*
X003077Y006061D02*
X002006Y006061D01*
X002006Y005963D02*
X003096Y005963D01*
X003096Y005864D02*
X002006Y005864D01*
X002006Y005766D02*
X003096Y005766D01*
X003096Y005667D02*
X002006Y005667D01*
X002006Y005569D02*
X003096Y005569D01*
X003096Y005470D02*
X002006Y005470D01*
X002006Y005372D02*
X003096Y005372D01*
X003096Y005273D02*
X002006Y005273D01*
X002006Y005175D02*
X003096Y005175D01*
X003096Y005076D02*
X002006Y005076D01*
X002006Y004978D02*
X003096Y004978D01*
X003096Y004879D02*
X002006Y004879D01*
X002006Y004781D02*
X003096Y004781D01*
X003096Y004682D02*
X002006Y004682D01*
X002006Y004584D02*
X003096Y004584D01*
X003096Y004485D02*
X002006Y004485D01*
X002006Y004387D02*
X003096Y004387D01*
X003096Y004288D02*
X002006Y004288D01*
X002006Y004190D02*
X003096Y004190D01*
X003096Y004091D02*
X002006Y004091D01*
X002006Y003993D02*
X003096Y003993D01*
X003096Y003894D02*
X002006Y003894D01*
X002006Y003796D02*
X003096Y003796D01*
X003096Y003697D02*
X002006Y003697D01*
X002006Y003599D02*
X003096Y003599D01*
X003096Y003500D02*
X002006Y003500D01*
X002006Y003402D02*
X003096Y003402D01*
X003096Y003303D02*
X002006Y003303D01*
X002006Y003205D02*
X003096Y003205D01*
X003096Y003106D02*
X002006Y003106D01*
X002006Y003008D02*
X003096Y003008D01*
X003096Y002909D02*
X002006Y002909D01*
X002006Y002811D02*
X003096Y002811D01*
X003096Y002712D02*
X002006Y002712D01*
X002006Y002614D02*
X003096Y002614D01*
X003096Y002515D02*
X002006Y002515D01*
X002006Y002417D02*
X003096Y002417D01*
X003096Y002318D02*
X002006Y002318D01*
X002006Y002220D02*
X003096Y002220D01*
X003096Y002121D02*
X002006Y002121D01*
X002006Y002023D02*
X003096Y002023D01*
X003096Y001924D02*
X002006Y001924D01*
X002006Y001826D02*
X003096Y001826D01*
X003516Y001826D02*
X008551Y001826D01*
X008526Y001727D02*
X003573Y001727D01*
X003516Y001924D02*
X010432Y001924D01*
X010459Y001629D02*
X010053Y001629D01*
X010151Y001530D02*
X010361Y001530D01*
X010313Y001432D02*
X010199Y001432D01*
X010236Y001333D02*
X010276Y001333D01*
X010276Y001235D02*
X010236Y001235D01*
X010230Y001136D02*
X010282Y001136D01*
X010323Y001038D02*
X010189Y001038D01*
X010127Y000939D02*
X010385Y000939D01*
X010483Y000841D02*
X010029Y000841D01*
X008465Y001629D02*
X008053Y001629D01*
X008151Y001530D02*
X008369Y001530D01*
X009233Y002417D02*
X010024Y002417D01*
X009926Y002515D02*
X009135Y002515D01*
X009036Y002614D02*
X009885Y002614D01*
X009878Y002712D02*
X008938Y002712D01*
X008839Y002811D02*
X009795Y002811D01*
X009697Y002909D02*
X008741Y002909D01*
X008666Y003008D02*
X009598Y003008D01*
X009500Y003106D02*
X008666Y003106D01*
X008666Y003205D02*
X009401Y003205D01*
X009303Y003303D02*
X008666Y003303D01*
X008666Y003402D02*
X009204Y003402D01*
X009106Y003500D02*
X008666Y003500D01*
X008666Y003599D02*
X009007Y003599D01*
X008909Y003697D02*
X008666Y003697D01*
X008666Y003796D02*
X008846Y003796D01*
X008846Y003894D02*
X008666Y003894D01*
X008666Y003993D02*
X008846Y003993D01*
X008846Y004091D02*
X008666Y004091D01*
X008666Y004190D02*
X008846Y004190D01*
X008846Y004288D02*
X008666Y004288D01*
X008666Y004387D02*
X008846Y004387D01*
X008846Y004485D02*
X008666Y004485D01*
X008666Y004584D02*
X008846Y004584D01*
X008846Y004682D02*
X008666Y004682D01*
X008666Y004781D02*
X008846Y004781D01*
X008846Y004879D02*
X008666Y004879D01*
X008666Y004978D02*
X008846Y004978D01*
X008846Y005076D02*
X008666Y005076D01*
X008625Y005175D02*
X008846Y005175D01*
X008846Y005273D02*
X008527Y005273D01*
X006261Y004978D02*
X003516Y004978D01*
X003516Y005076D02*
X004930Y005076D01*
X004831Y005175D02*
X003516Y005175D01*
X003516Y005273D02*
X004733Y005273D01*
X004696Y005372D02*
X003516Y005372D01*
X003516Y005470D02*
X004696Y005470D01*
X004696Y005569D02*
X003516Y005569D01*
X003516Y005667D02*
X004696Y005667D01*
X004696Y005766D02*
X003516Y005766D01*
X003516Y005864D02*
X004696Y005864D01*
X004696Y005963D02*
X003516Y005963D01*
X003535Y006061D02*
X004696Y006061D01*
X004696Y006160D02*
X003605Y006160D01*
X003635Y006258D02*
X004696Y006258D01*
X004696Y006357D02*
X003635Y006357D01*
X003596Y006455D02*
X004696Y006455D01*
X004696Y006554D02*
X003514Y006554D01*
X002006Y007539D02*
X005381Y007539D01*
X005381Y007637D02*
X002006Y007637D01*
X002006Y007736D02*
X005391Y007736D01*
X005432Y007834D02*
X002006Y007834D01*
X002006Y007933D02*
X005473Y007933D01*
X005520Y008031D02*
X002006Y008031D01*
X002006Y008130D02*
X005619Y008130D01*
X005717Y008228D02*
X002006Y008228D01*
X005130Y005470D02*
X006215Y005470D01*
X008524Y009115D02*
X009077Y009115D01*
X009176Y009213D02*
X008621Y009213D01*
X008725Y009312D02*
X009274Y009312D01*
X009373Y009410D02*
X008802Y009410D01*
X008879Y009509D02*
X009471Y009509D01*
X009570Y009607D02*
X008956Y009607D01*
X009012Y009706D02*
X009668Y009706D01*
X009767Y009804D02*
X009072Y009804D01*
X009131Y009903D02*
X009796Y009903D01*
X009796Y010001D02*
X009170Y010001D01*
X009217Y010100D02*
X009796Y010100D01*
X009796Y010198D02*
X009258Y010198D01*
X009283Y010297D02*
X009796Y010297D01*
X009290Y011873D02*
X011506Y011873D01*
X011506Y011971D02*
X011142Y011971D01*
X011289Y012070D02*
X011506Y012070D01*
X011506Y012168D02*
X011422Y012168D01*
X011487Y012267D02*
X011506Y012267D01*
X011506Y005667D02*
X010816Y005667D01*
X010816Y005569D02*
X011506Y005569D01*
X011506Y005470D02*
X010816Y005470D01*
X010816Y005372D02*
X011506Y005372D01*
X011506Y005273D02*
X010816Y005273D01*
X010816Y005175D02*
X011506Y005175D01*
X011506Y005076D02*
X010816Y005076D01*
X010816Y004978D02*
X011506Y004978D01*
X011506Y004879D02*
X010816Y004879D01*
X010816Y004781D02*
X011506Y004781D01*
X011506Y004682D02*
X010816Y004682D01*
X010816Y004584D02*
X011506Y004584D01*
X011506Y004485D02*
X010816Y004485D01*
X010816Y004387D02*
X011506Y004387D01*
X011506Y004288D02*
X010816Y004288D01*
X010816Y004190D02*
X011506Y004190D01*
X011506Y004091D02*
X010816Y004091D01*
X010816Y003993D02*
X011506Y003993D01*
X011506Y003894D02*
X010856Y003894D01*
X010954Y003796D02*
X011506Y003796D01*
X011506Y003697D02*
X011053Y003697D01*
X011151Y003599D02*
X011227Y003599D01*
X011485Y003599D02*
X011506Y003599D01*
M02*
