G75*
%MOIN*%
%OFA0B0*%
%FSLAX24Y24*%
%IPPOS*%
%LPD*%
%AMOC8*
5,1,8,0,0,1.08239X$1,22.5*
%
%ADD10C,0.0000*%
%ADD11R,0.0454X0.0847*%
%ADD12C,0.1241*%
%ADD13R,0.0532X0.0277*%
%ADD14R,0.0532X0.0532*%
%ADD15R,0.0651X0.0572*%
%ADD16R,0.0572X0.0651*%
%ADD17R,0.0375X0.0454*%
%ADD18C,0.0050*%
%ADD19R,0.0395X0.0926*%
%ADD20R,0.0454X0.0473*%
%ADD21C,0.0760*%
D10*
X001756Y001447D02*
X001756Y012403D01*
X001746Y012471D01*
X001741Y012539D01*
X001739Y012607D01*
X001741Y012675D01*
X001747Y012743D01*
X001757Y012811D01*
X001770Y012878D01*
X001788Y012944D01*
X001809Y013009D01*
X001833Y013072D01*
X001861Y013134D01*
X001893Y013195D01*
X001928Y013254D01*
X001966Y013310D01*
X002007Y013365D01*
X002051Y013417D01*
X002098Y013466D01*
X002148Y013513D01*
X002200Y013557D01*
X002255Y013598D01*
X002312Y013635D01*
X002371Y013670D01*
X002431Y013701D01*
X002494Y013729D01*
X002558Y013753D01*
X002623Y013773D01*
X002689Y013790D01*
X002756Y013803D01*
X010756Y013803D01*
X010823Y013790D01*
X010889Y013773D01*
X010954Y013753D01*
X011018Y013729D01*
X011081Y013701D01*
X011141Y013670D01*
X011200Y013635D01*
X011257Y013598D01*
X011312Y013557D01*
X011364Y013513D01*
X011414Y013466D01*
X011461Y013417D01*
X011505Y013365D01*
X011546Y013310D01*
X011584Y013254D01*
X011619Y013195D01*
X011651Y013134D01*
X011679Y013072D01*
X011703Y013009D01*
X011724Y012944D01*
X011742Y012878D01*
X011755Y012811D01*
X011765Y012743D01*
X011771Y012675D01*
X011773Y012607D01*
X011771Y012539D01*
X011766Y012471D01*
X011756Y012403D01*
X011756Y001447D01*
X011754Y001387D01*
X011749Y001326D01*
X011740Y001267D01*
X011727Y001208D01*
X011711Y001149D01*
X011691Y001092D01*
X011668Y001037D01*
X011641Y000982D01*
X011612Y000930D01*
X011579Y000879D01*
X011543Y000830D01*
X011505Y000784D01*
X011463Y000740D01*
X011419Y000698D01*
X011373Y000660D01*
X011324Y000624D01*
X011273Y000591D01*
X011221Y000562D01*
X011166Y000535D01*
X011111Y000512D01*
X011054Y000492D01*
X010995Y000476D01*
X010936Y000463D01*
X010877Y000454D01*
X010816Y000449D01*
X010756Y000447D01*
X002756Y000447D01*
X002696Y000449D01*
X002635Y000454D01*
X002576Y000463D01*
X002517Y000476D01*
X002458Y000492D01*
X002401Y000512D01*
X002346Y000535D01*
X002291Y000562D01*
X002239Y000591D01*
X002188Y000624D01*
X002139Y000660D01*
X002093Y000698D01*
X002049Y000740D01*
X002007Y000784D01*
X001969Y000830D01*
X001933Y000879D01*
X001900Y000930D01*
X001871Y000982D01*
X001844Y001037D01*
X001821Y001092D01*
X001801Y001149D01*
X001785Y001208D01*
X001772Y001267D01*
X001763Y001326D01*
X001758Y001387D01*
X001756Y001447D01*
X005630Y007544D02*
X005632Y007592D01*
X005638Y007640D01*
X005648Y007687D01*
X005661Y007733D01*
X005679Y007778D01*
X005699Y007822D01*
X005724Y007864D01*
X005752Y007903D01*
X005782Y007940D01*
X005816Y007974D01*
X005853Y008006D01*
X005891Y008035D01*
X005932Y008060D01*
X005975Y008082D01*
X006020Y008100D01*
X006066Y008114D01*
X006113Y008125D01*
X006161Y008132D01*
X006209Y008135D01*
X006257Y008134D01*
X006305Y008129D01*
X006353Y008120D01*
X006399Y008108D01*
X006444Y008091D01*
X006488Y008071D01*
X006530Y008048D01*
X006570Y008021D01*
X006608Y007991D01*
X006643Y007958D01*
X006675Y007922D01*
X006705Y007884D01*
X006731Y007843D01*
X006753Y007800D01*
X006773Y007756D01*
X006788Y007711D01*
X006800Y007664D01*
X006808Y007616D01*
X006812Y007568D01*
X006812Y007520D01*
X006808Y007472D01*
X006800Y007424D01*
X006788Y007377D01*
X006773Y007332D01*
X006753Y007288D01*
X006731Y007245D01*
X006705Y007204D01*
X006675Y007166D01*
X006643Y007130D01*
X006608Y007097D01*
X006570Y007067D01*
X006530Y007040D01*
X006488Y007017D01*
X006444Y006997D01*
X006399Y006980D01*
X006353Y006968D01*
X006305Y006959D01*
X006257Y006954D01*
X006209Y006953D01*
X006161Y006956D01*
X006113Y006963D01*
X006066Y006974D01*
X006020Y006988D01*
X005975Y007006D01*
X005932Y007028D01*
X005891Y007053D01*
X005853Y007082D01*
X005816Y007114D01*
X005782Y007148D01*
X005752Y007185D01*
X005724Y007224D01*
X005699Y007266D01*
X005679Y007310D01*
X005661Y007355D01*
X005648Y007401D01*
X005638Y007448D01*
X005632Y007496D01*
X005630Y007544D01*
D11*
X005670Y010299D03*
X005080Y010299D03*
X004489Y010299D03*
X003899Y010299D03*
X006261Y010299D03*
X006851Y010299D03*
X007442Y010299D03*
X008032Y010299D03*
X008623Y010299D03*
X009214Y010299D03*
X009214Y004394D03*
X008623Y004394D03*
X008032Y004394D03*
X007442Y004394D03*
X006851Y004394D03*
X006261Y004394D03*
X005670Y004394D03*
X005080Y004394D03*
X004489Y004394D03*
X003899Y004394D03*
D12*
X006221Y007544D03*
X002756Y012803D03*
X010756Y012803D03*
D13*
X010294Y007611D03*
X010294Y007237D03*
X010294Y006863D03*
X011318Y006863D03*
X011318Y007611D03*
D14*
X002616Y008683D03*
X002616Y009510D03*
D15*
X002597Y007871D03*
X002597Y007123D03*
X010406Y008263D03*
X010406Y009011D03*
X011206Y009011D03*
X011206Y008263D03*
X011206Y009863D03*
X010406Y009882D03*
X010406Y010630D03*
X011206Y010611D03*
X011097Y004921D03*
X011097Y004173D03*
D16*
X011180Y006187D03*
X010432Y006187D03*
D17*
X010356Y005090D03*
X010356Y004303D03*
D18*
X009174Y008909D02*
X009241Y008927D01*
X009303Y008956D01*
X009359Y008995D01*
X009408Y009044D01*
X009447Y009100D01*
X009476Y009162D01*
X009494Y009228D01*
X009500Y009297D01*
X009494Y009365D01*
X009476Y009431D01*
X009447Y009494D01*
X009408Y009550D01*
X009359Y009598D01*
X009303Y009638D01*
X009241Y009667D01*
X009174Y009684D01*
X009106Y009690D01*
X009038Y009684D01*
X008971Y009667D01*
X008909Y009638D01*
X008853Y009598D01*
X008805Y009550D01*
X008765Y009494D01*
X008736Y009431D01*
X008718Y009365D01*
X008712Y009297D01*
X008718Y009228D01*
X008736Y009162D01*
X008765Y009100D01*
X008805Y009044D01*
X008853Y008995D01*
X008909Y008956D01*
X008971Y008927D01*
X009038Y008909D01*
X009106Y008903D01*
X009174Y008909D01*
X009257Y008934D02*
X008955Y008934D01*
X008871Y008983D02*
X009342Y008983D01*
X009395Y009031D02*
X008817Y009031D01*
X008779Y009080D02*
X009433Y009080D01*
X009460Y009128D02*
X008752Y009128D01*
X008732Y009177D02*
X009480Y009177D01*
X009493Y009225D02*
X008719Y009225D01*
X008714Y009274D02*
X009498Y009274D01*
X009498Y009322D02*
X008715Y009322D01*
X008720Y009371D02*
X009492Y009371D01*
X009479Y009419D02*
X008733Y009419D01*
X008753Y009468D02*
X009459Y009468D01*
X009431Y009516D02*
X008781Y009516D01*
X008820Y009565D02*
X009393Y009565D01*
X009338Y009613D02*
X008874Y009613D01*
X008961Y009662D02*
X009251Y009662D01*
X002956Y005511D02*
X002985Y005449D01*
X003003Y005383D01*
X003009Y005314D01*
X003003Y005246D01*
X002985Y005180D01*
X002956Y005118D01*
X002917Y005061D01*
X002868Y005013D01*
X002812Y004973D01*
X002750Y004944D01*
X002684Y004927D01*
X002615Y004921D01*
X002547Y004927D01*
X002481Y004944D01*
X002418Y004973D01*
X002362Y005013D01*
X002314Y005061D01*
X002274Y005118D01*
X002245Y005180D01*
X002227Y005246D01*
X002221Y005314D01*
X002227Y005383D01*
X002245Y005449D01*
X002274Y005511D01*
X002314Y005567D01*
X002362Y005616D01*
X002418Y005655D01*
X002481Y005684D01*
X002547Y005702D01*
X002615Y005708D01*
X002684Y005702D01*
X002750Y005684D01*
X002812Y005655D01*
X002868Y005616D01*
X002917Y005567D01*
X002956Y005511D01*
X002966Y005491D02*
X002265Y005491D01*
X002243Y005442D02*
X002987Y005442D01*
X003000Y005394D02*
X002230Y005394D01*
X002224Y005345D02*
X003006Y005345D01*
X003007Y005297D02*
X002223Y005297D01*
X002227Y005248D02*
X003003Y005248D01*
X002990Y005200D02*
X002240Y005200D01*
X002259Y005151D02*
X002972Y005151D01*
X002946Y005103D02*
X002285Y005103D01*
X002321Y005054D02*
X002910Y005054D01*
X002858Y005006D02*
X002372Y005006D01*
X002453Y004957D02*
X002777Y004957D01*
X002937Y005539D02*
X002294Y005539D01*
X002334Y005588D02*
X002897Y005588D01*
X002839Y005636D02*
X002391Y005636D01*
X002482Y005685D02*
X002749Y005685D01*
D19*
X008665Y011647D03*
X009747Y011647D03*
D20*
X009206Y012247D03*
X009206Y011046D03*
D21*
X008756Y001247D03*
X009756Y001247D03*
X010756Y001247D03*
X007756Y001247D03*
X006756Y001247D03*
X005756Y001247D03*
X004756Y001247D03*
X003756Y001247D03*
X002756Y001247D03*
M02*
