G75*
%MOIN*%
%OFA0B0*%
%FSLAX24Y24*%
%IPPOS*%
%LPD*%
%AMOC8*
5,1,8,0,0,1.08239X$1,22.5*
%
%ADD10C,0.0000*%
%ADD11C,0.1241*%
%ADD12C,0.2560*%
%ADD13R,0.1320X0.1320*%
%ADD14C,0.0050*%
%ADD15C,0.0760*%
D10*
X001756Y001447D02*
X001756Y012403D01*
X001746Y012471D01*
X001741Y012539D01*
X001739Y012607D01*
X001741Y012675D01*
X001747Y012743D01*
X001757Y012811D01*
X001770Y012878D01*
X001788Y012944D01*
X001809Y013009D01*
X001833Y013072D01*
X001861Y013134D01*
X001893Y013195D01*
X001928Y013254D01*
X001966Y013310D01*
X002007Y013365D01*
X002051Y013417D01*
X002098Y013466D01*
X002148Y013513D01*
X002200Y013557D01*
X002255Y013598D01*
X002312Y013635D01*
X002371Y013670D01*
X002431Y013701D01*
X002494Y013729D01*
X002558Y013753D01*
X002623Y013773D01*
X002689Y013790D01*
X002756Y013803D01*
X010756Y013803D01*
X010823Y013790D01*
X010889Y013773D01*
X010954Y013753D01*
X011018Y013729D01*
X011081Y013701D01*
X011141Y013670D01*
X011200Y013635D01*
X011257Y013598D01*
X011312Y013557D01*
X011364Y013513D01*
X011414Y013466D01*
X011461Y013417D01*
X011505Y013365D01*
X011546Y013310D01*
X011584Y013254D01*
X011619Y013195D01*
X011651Y013134D01*
X011679Y013072D01*
X011703Y013009D01*
X011724Y012944D01*
X011742Y012878D01*
X011755Y012811D01*
X011765Y012743D01*
X011771Y012675D01*
X011773Y012607D01*
X011771Y012539D01*
X011766Y012471D01*
X011756Y012403D01*
X011756Y001447D01*
X011754Y001387D01*
X011749Y001326D01*
X011740Y001267D01*
X011727Y001208D01*
X011711Y001149D01*
X011691Y001092D01*
X011668Y001037D01*
X011641Y000982D01*
X011612Y000930D01*
X011579Y000879D01*
X011543Y000830D01*
X011505Y000784D01*
X011463Y000740D01*
X011419Y000698D01*
X011373Y000660D01*
X011324Y000624D01*
X011273Y000591D01*
X011221Y000562D01*
X011166Y000535D01*
X011111Y000512D01*
X011054Y000492D01*
X010995Y000476D01*
X010936Y000463D01*
X010877Y000454D01*
X010816Y000449D01*
X010756Y000447D01*
X002756Y000447D01*
X002696Y000449D01*
X002635Y000454D01*
X002576Y000463D01*
X002517Y000476D01*
X002458Y000492D01*
X002401Y000512D01*
X002346Y000535D01*
X002291Y000562D01*
X002239Y000591D01*
X002188Y000624D01*
X002139Y000660D01*
X002093Y000698D01*
X002049Y000740D01*
X002007Y000784D01*
X001969Y000830D01*
X001933Y000879D01*
X001900Y000930D01*
X001871Y000982D01*
X001844Y001037D01*
X001821Y001092D01*
X001801Y001149D01*
X001785Y001208D01*
X001772Y001267D01*
X001763Y001326D01*
X001758Y001387D01*
X001756Y001447D01*
X005630Y007544D02*
X005632Y007592D01*
X005638Y007640D01*
X005648Y007687D01*
X005661Y007733D01*
X005679Y007778D01*
X005699Y007822D01*
X005724Y007864D01*
X005752Y007903D01*
X005782Y007940D01*
X005816Y007974D01*
X005853Y008006D01*
X005891Y008035D01*
X005932Y008060D01*
X005975Y008082D01*
X006020Y008100D01*
X006066Y008114D01*
X006113Y008125D01*
X006161Y008132D01*
X006209Y008135D01*
X006257Y008134D01*
X006305Y008129D01*
X006353Y008120D01*
X006399Y008108D01*
X006444Y008091D01*
X006488Y008071D01*
X006530Y008048D01*
X006570Y008021D01*
X006608Y007991D01*
X006643Y007958D01*
X006675Y007922D01*
X006705Y007884D01*
X006731Y007843D01*
X006753Y007800D01*
X006773Y007756D01*
X006788Y007711D01*
X006800Y007664D01*
X006808Y007616D01*
X006812Y007568D01*
X006812Y007520D01*
X006808Y007472D01*
X006800Y007424D01*
X006788Y007377D01*
X006773Y007332D01*
X006753Y007288D01*
X006731Y007245D01*
X006705Y007204D01*
X006675Y007166D01*
X006643Y007130D01*
X006608Y007097D01*
X006570Y007067D01*
X006530Y007040D01*
X006488Y007017D01*
X006444Y006997D01*
X006399Y006980D01*
X006353Y006968D01*
X006305Y006959D01*
X006257Y006954D01*
X006209Y006953D01*
X006161Y006956D01*
X006113Y006963D01*
X006066Y006974D01*
X006020Y006988D01*
X005975Y007006D01*
X005932Y007028D01*
X005891Y007053D01*
X005853Y007082D01*
X005816Y007114D01*
X005782Y007148D01*
X005752Y007185D01*
X005724Y007224D01*
X005699Y007266D01*
X005679Y007310D01*
X005661Y007355D01*
X005648Y007401D01*
X005638Y007448D01*
X005632Y007496D01*
X005630Y007544D01*
D11*
X006221Y007544D03*
X002756Y012803D03*
X010756Y012803D03*
D12*
X006756Y011097D03*
D13*
X003518Y011097D03*
X009994Y011097D03*
D14*
X009256Y011097D02*
X009238Y010795D01*
X009183Y010498D01*
X009094Y010210D01*
X008970Y009935D01*
X008814Y009677D01*
X008627Y009439D01*
X008414Y009225D01*
X005099Y009225D01*
X005098Y009225D02*
X005336Y009039D01*
X005594Y008883D01*
X005870Y008759D01*
X006158Y008669D01*
X006455Y008615D01*
X006756Y008597D01*
X007057Y008615D01*
X007354Y008669D01*
X007643Y008759D01*
X007918Y008883D01*
X008176Y009039D01*
X008414Y009225D01*
X008462Y009274D02*
X005050Y009274D01*
X005001Y009322D02*
X008511Y009322D01*
X008559Y009371D02*
X004953Y009371D01*
X004904Y009419D02*
X008608Y009419D01*
X008650Y009468D02*
X004862Y009468D01*
X004885Y009439D02*
X005098Y009225D01*
X005160Y009177D02*
X008352Y009177D01*
X008290Y009128D02*
X005222Y009128D01*
X005284Y009080D02*
X008228Y009080D01*
X008163Y009031D02*
X005349Y009031D01*
X005429Y008983D02*
X008083Y008983D01*
X008003Y008934D02*
X005510Y008934D01*
X005590Y008886D02*
X007922Y008886D01*
X007816Y008837D02*
X005696Y008837D01*
X005804Y008789D02*
X007708Y008789D01*
X007582Y008740D02*
X005930Y008740D01*
X006086Y008692D02*
X007426Y008692D01*
X007212Y008643D02*
X006300Y008643D01*
X004885Y009439D02*
X004699Y009677D01*
X004542Y009935D01*
X004419Y010210D01*
X004329Y010498D01*
X004274Y010795D01*
X004256Y011097D01*
X004274Y011398D01*
X004329Y011695D01*
X004419Y011983D01*
X004542Y012258D01*
X004699Y012517D01*
X004885Y012754D01*
X005098Y012968D01*
X005336Y013154D01*
X005594Y013310D01*
X005870Y013434D01*
X006158Y013524D01*
X006455Y013578D01*
X006756Y013597D01*
X007057Y013578D01*
X007354Y013524D01*
X007643Y013434D01*
X007918Y013310D01*
X008176Y013154D01*
X008414Y012968D01*
X008627Y012754D01*
X008814Y012517D01*
X008970Y012258D01*
X009094Y011983D01*
X009183Y011695D01*
X009238Y011398D01*
X009256Y011097D01*
X009255Y011117D02*
X004257Y011117D01*
X004260Y011165D02*
X009252Y011165D01*
X009249Y011214D02*
X004263Y011214D01*
X004266Y011262D02*
X009246Y011262D01*
X009243Y011311D02*
X004269Y011311D01*
X004272Y011359D02*
X009240Y011359D01*
X009236Y011408D02*
X004276Y011408D01*
X004285Y011456D02*
X009227Y011456D01*
X009218Y011505D02*
X004294Y011505D01*
X004303Y011553D02*
X009209Y011553D01*
X009201Y011602D02*
X004312Y011602D01*
X004321Y011650D02*
X009192Y011650D01*
X009182Y011699D02*
X004330Y011699D01*
X004345Y011747D02*
X009167Y011747D01*
X009152Y011796D02*
X004360Y011796D01*
X004375Y011844D02*
X009137Y011844D01*
X009122Y011893D02*
X004390Y011893D01*
X004406Y011941D02*
X009107Y011941D01*
X009091Y011990D02*
X004422Y011990D01*
X004443Y012038D02*
X009069Y012038D01*
X009047Y012087D02*
X004465Y012087D01*
X004487Y012135D02*
X009025Y012135D01*
X009003Y012184D02*
X004509Y012184D01*
X004531Y012232D02*
X008982Y012232D01*
X008956Y012281D02*
X004556Y012281D01*
X004585Y012329D02*
X008927Y012329D01*
X008898Y012378D02*
X004615Y012378D01*
X004644Y012426D02*
X008868Y012426D01*
X008839Y012475D02*
X004673Y012475D01*
X004704Y012523D02*
X008809Y012523D01*
X008771Y012572D02*
X004742Y012572D01*
X004780Y012620D02*
X008733Y012620D01*
X008695Y012669D02*
X004818Y012669D01*
X004856Y012717D02*
X008657Y012717D01*
X008616Y012766D02*
X004896Y012766D01*
X004945Y012814D02*
X008568Y012814D01*
X008519Y012863D02*
X004993Y012863D01*
X005042Y012911D02*
X008471Y012911D01*
X008422Y012960D02*
X005090Y012960D01*
X005150Y013008D02*
X008363Y013008D01*
X008301Y013057D02*
X005212Y013057D01*
X005274Y013105D02*
X008239Y013105D01*
X008177Y013154D02*
X005335Y013154D01*
X005416Y013202D02*
X008097Y013202D01*
X008016Y013251D02*
X005496Y013251D01*
X005576Y013299D02*
X007936Y013299D01*
X007835Y013348D02*
X005677Y013348D01*
X005785Y013396D02*
X007727Y013396D01*
X007609Y013445D02*
X005903Y013445D01*
X006059Y013493D02*
X007453Y013493D01*
X007258Y013542D02*
X006254Y013542D01*
X006650Y013590D02*
X006862Y013590D01*
X009254Y011068D02*
X004258Y011068D01*
X004261Y011020D02*
X009251Y011020D01*
X009249Y010971D02*
X004264Y010971D01*
X004267Y010923D02*
X009246Y010923D01*
X009243Y010874D02*
X004270Y010874D01*
X004273Y010826D02*
X009240Y010826D01*
X009235Y010777D02*
X004278Y010777D01*
X004287Y010729D02*
X009226Y010729D01*
X009217Y010680D02*
X004295Y010680D01*
X004304Y010632D02*
X009208Y010632D01*
X009199Y010583D02*
X004313Y010583D01*
X004322Y010535D02*
X009190Y010535D01*
X009180Y010486D02*
X004333Y010486D01*
X004348Y010438D02*
X009165Y010438D01*
X009149Y010389D02*
X004363Y010389D01*
X004378Y010341D02*
X009134Y010341D01*
X009119Y010292D02*
X004393Y010292D01*
X004408Y010244D02*
X009104Y010244D01*
X009087Y010195D02*
X004425Y010195D01*
X004447Y010147D02*
X009065Y010147D01*
X009043Y010098D02*
X004469Y010098D01*
X004491Y010050D02*
X009021Y010050D01*
X009000Y010001D02*
X004513Y010001D01*
X004534Y009953D02*
X008978Y009953D01*
X008951Y009904D02*
X004561Y009904D01*
X004590Y009856D02*
X008922Y009856D01*
X008893Y009807D02*
X004620Y009807D01*
X004649Y009759D02*
X008863Y009759D01*
X008834Y009710D02*
X004678Y009710D01*
X004710Y009662D02*
X008802Y009662D01*
X008764Y009613D02*
X004748Y009613D01*
X004786Y009565D02*
X008726Y009565D01*
X008688Y009516D02*
X004824Y009516D01*
D15*
X004756Y001247D03*
X005756Y001247D03*
X006756Y001247D03*
X007756Y001247D03*
X008756Y001247D03*
X009756Y001247D03*
X010756Y001247D03*
X003756Y001247D03*
X002756Y001247D03*
M02*
