%
M48
M72
T01C0.0197
T02C0.0394
T03C0.0866
T04C0.1181
%
T01
X11206Y11747
X4306Y9297
X4856Y7097
X3306Y6297
X2606Y6447
X6456Y5247
X7506Y5347
X8406Y5797
X9056Y6447
X9606Y7347
X9306Y8197
X7606Y7397
X9606Y5547
X11356Y5597
X11356Y3297
X10206Y2697
X3956Y3297
X9006Y13047
T02
X10756Y1247
X5756Y1247
X4756Y1247
X3756Y1247
X2756Y1247
X6756Y1247
X7756Y1247
X8756Y1247
X9756Y1247
T03
X2756Y12803
X10756Y12803
T04
X6221Y7544
M30
